<?xml version="1.0" encoding="UTF-8"?>
<svg id="Camada_2" data-name="Camada 2" xmlns="http://www.w3.org/2000/svg" viewBox="0 0 70 75.16">
  <defs>
    <style>
      .cls-1 {
        fill: #fff;
      }

      .cls-1, .cls-2, .cls-3 {
        fill-rule: evenodd;
      }

      .cls-2 {
        fill: #7b87e6;
      }

      .cls-3 {
        fill: #272c47;
      }
    </style>
  </defs>
  <g id="Camada_1-2" data-name="Camada 1">
    <g>
      <path class="cls-2" d="M5.09,14.71h37.55c2.8,0,5.09,2.29,5.09,5.09v46.14H6.12c-2.01,0-3.66,1.65-3.66,3.66h0c0,2.01,1.65,3.66,3.66,3.66h41.6v1.91H5.09c-2.8,0-5.09-2.29-5.09-5.09V19.8c0-2.8,2.29-5.09,5.09-5.09Z"/>
      <g>
        <path class="cls-2" d="M27.36,0h37.55c2.8,0,5.09,2.29,5.09,5.09v46.14H28.4c-2.01,0-3.66,1.65-3.66,3.66h0c0,2.01,1.65,3.66,3.66,3.66h41.6v1.91H27.36c-2.8,0-5.09-2.29-5.09-5.09V5.09c0-2.8,2.29-5.09,5.09-5.09Z"/>
        <path class="cls-1" d="M28.4,51.23h39.78v7.31H28.4c-2.01,0-3.66-1.65-3.66-3.66h0c0-2.01,1.65-3.66,3.66-3.66Z"/>
        <path class="cls-3" d="M22.27,14.71h20.36c2.8,0,5.09,2.29,5.09,5.09v31.43h-19.33c-2.01,0-3.66,1.65-3.66,3.66h0c0,2.01,1.65,3.66,3.66,3.66h19.33v1.91h-20.36c-2.8,0-5.09-2.29-5.09-5.09V14.71Z"/>
      </g>
      <path class="cls-1" d="M6.12,65.94h39.78v7.31H6.12c-2.01,0-3.66-1.65-3.66-3.66h0c0-2.01,1.65-3.66,3.66-3.66Z"/>
    </g>
  </g>
</svg>