<?xml version="1.0" encoding="UTF-8"?>
<svg id="Camada_2" data-name="Camada 2" xmlns="http://www.w3.org/2000/svg" xmlns:xlink="http://www.w3.org/1999/xlink" viewBox="0 0 70 70">
  <defs>
    <style>
      .cls-1 {
        fill: url(#Degradado_sin_nombre_3);
      }
    </style>
    <linearGradient id="Degradado_sin_nombre_3" data-name="Degradado sin nombre 3" x1="9.55" y1="19.41" x2="69.24" y2="55.97" gradientUnits="userSpaceOnUse">
      <stop offset="0" stop-color="#ffe185"/>
      <stop offset=".21" stop-color="#ffbb36"/>
      <stop offset=".38" stop-color="#ff5176"/>
      <stop offset=".52" stop-color="#f63395"/>
      <stop offset=".74" stop-color="#a436d2"/>
      <stop offset="1" stop-color="#5f4eed"/>
    </linearGradient>
  </defs>
  <g id="Camada_1-2" data-name="Camada 1">
    <path class="cls-1" d="M57.64,16.6c0,2.27-1.84,4.1-4.1,4.1s-4.1-1.84-4.1-4.1,1.84-4.1,4.1-4.1,4.1,1.84,4.1,4.1ZM52.53,35c0,9.51-7.73,17.24-17.24,17.24s-17.24-7.73-17.24-17.24,7.73-17.24,17.24-17.24,17.24,7.73,17.24,17.24ZM46.33,35c0-6.09-4.95-11.04-11.04-11.04s-11.04,4.95-11.04,11.04,4.95,11.04,11.04,11.04,11.04-4.95,11.04-11.04ZM70,21.03v27.95c0,11.59-9.43,21.03-21.03,21.03h-27.95c-11.59,0-21.03-9.43-21.03-21.03v-27.95C0,9.43,9.43,0,21.03,0h27.95c11.59,0,21.03,9.43,21.03,21.03ZM63.41,21.03c0-7.96-6.48-14.44-14.44-14.44h-27.95c-7.96,0-14.44,6.48-14.44,14.44v27.95c0,7.96,6.48,14.44,14.44,14.44h27.95c7.96,0,14.44-6.48,14.44-14.44v-27.95Z"/>
  </g>
</svg>