<?xml version="1.0" encoding="UTF-8"?>
<svg id="Camada_2" data-name="Camada 2" xmlns="http://www.w3.org/2000/svg" viewBox="0 0 70 70">
  <defs>
    <style>
      .cls-1 {
        fill: #ff1753;
      }

      .cls-1, .cls-2, .cls-3 {
        fill-rule: evenodd;
      }

      .cls-4 {
        fill: #252525;
      }

      .cls-2 {
        fill: #fff;
      }

      .cls-3 {
        fill: #00c9d0;
      }
    </style>
  </defs>
  <g id="Camada_1-2" data-name="Camada 1">
    <g>
      <rect class="cls-4" width="70" height="70" rx="5.63" ry="5.63"/>
      <g>
        <path class="cls-1" d="M43.93,29.18c2.7,1.93,6.01,3.07,9.59,3.07v-6.88c-.68,0-1.35-.07-2.01-.21v5.41c-3.57,0-6.88-1.14-9.59-3.07v19.08c0,.68-.25,1.35-.72,1.84-6.59,6.92-14.08,7.02-19.07,3.67,4.79,4.9,13.52,5.94,21.08-1.98.47-.49.73-1.17.73-1.85v-19.08h0ZM46.41,22.25c-1.38-1.51-2.29-3.46-2.48-5.61v-.88h-1.91c.48,2.74,2.12,5.08,4.39,6.49h0ZM26.56,46.71c-.77-1.01-1.19-2.25-1.19-3.52,0-3.21,2.6-5.81,5.82-5.81.6,0,1.19.09,1.76.27v-7.03c-.67-.09-1.34-.13-2.01-.12v5.47c-.57-.18-1.17-.27-1.77-.27-3.21,0-5.82,2.6-5.82,5.81,0,2.27,1.3,4.24,3.2,5.19Z"/>
        <path class="cls-2" d="M41.92,27.51c2.7,1.93,6.01,3.07,9.59,3.07v-5.41c-2-.42-3.76-1.47-5.09-2.92-2.27-1.42-3.91-3.76-4.39-6.49h-5.01v27.46c-.01,3.2-2.61,5.79-5.82,5.79-1.89,0-3.57-.9-4.63-2.29-3.02-1.52-4.53-5.61-1.68-9.4,2.07-1.63,4.26-1.91,6.06-1.33v-5.47c-6.9.14-12.45,5.78-12.45,12.7,0,3.46,1.38,6.59,3.62,8.88,4.99,3.35,12.48,3.25,19.07-3.66.47-.49.72-1.16.72-1.84v-19.09Z"/>
        <path class="cls-3" d="M51.5,25.16v-1.46c-1.8,0-3.56-.5-5.09-1.45,1.35,1.48,3.13,2.5,5.09,2.92ZM42.02,15.75c-.05-.26-.08-.53-.11-.79v-.88h-6.92v27.46c-.01,3.2-2.61,5.79-5.82,5.79-.94,0-1.83-.22-2.62-.62,1.06,1.39,2.74,2.29,4.63,2.29,3.21,0,5.81-2.59,5.82-5.79V15.75h5.01ZM30.95,30.51v-1.56c-4.37-.6-8.99,1.07-12.25,5.13-.17.21-.32.44-.44.67-3.7,6.96-1.22,13.93,3.87,17.34-2.24-2.29-3.62-5.43-3.62-8.88,0-6.93,5.55-12.56,12.45-12.7h0Z"/>
      </g>
    </g>
  </g>
</svg>