<?xml version="1.0" encoding="UTF-8"?>
<svg id="Camada_2" data-name="Camada 2" xmlns="http://www.w3.org/2000/svg" viewBox="0 0 69.83 70">
  <defs>
    <style>
      .cls-1, .cls-2 {
        fill: #00d45e;
      }

      .cls-2 {
        fill-rule: evenodd;
      }
    </style>
  </defs>
  <g id="Camada_1-2" data-name="Camada 1">
    <g>
      <path class="cls-1" d="M0,70l5.02-18.72c-2.84-5.13-4.34-10.87-4.34-16.7C.68,15.51,16.19,0,35.26,0s34.57,15.51,34.57,34.57-15.51,34.57-34.57,34.57c-5.72,0-11.38-1.44-16.43-4.19L0,70ZM19.76,57.94l1.19.71c4.35,2.59,9.3,3.96,14.31,3.96,15.46,0,28.04-12.58,28.04-28.04S50.72,6.54,35.26,6.54,7.22,19.11,7.22,34.57c0,5.11,1.42,10.13,4.1,14.54l.73,1.19-2.8,10.45,10.51-2.82Z"/>
      <path class="cls-2" d="M48.12,39.38c-1.42-.85-3.27-1.8-4.95-1.12-1.29.53-2.11,2.54-2.94,3.57-.43.53-.94.61-1.59.35-4.83-1.92-8.53-5.15-11.19-9.59-.45-.69-.37-1.23.17-1.87.81-.95,1.82-2.02,2.03-3.3.22-1.28-.38-2.77-.91-3.91-.67-1.45-1.43-3.53-2.88-4.35-1.34-.76-3.1-.33-4.29.64-2.06,1.68-3.05,4.3-3.02,6.9,0,.74.1,1.48.27,2.19.42,1.72,1.21,3.32,2.1,4.84.67,1.15,1.4,2.26,2.19,3.34,2.58,3.51,5.8,6.56,9.52,8.83,1.86,1.14,3.86,2.14,5.93,2.82,2.32.77,4.4,1.57,6.91,1.09,2.63-.5,5.22-2.13,6.26-4.66.31-.75.46-1.59.29-2.38-.36-1.64-2.57-2.61-3.9-3.4Z"/>
    </g>
  </g>
</svg>